<mxfile host="app.diagrams.net" modified="2020-12-24T09:09:09.567Z" agent="5.0 (Windows NT 6.1; Win64; x64) AppleWebKit/537.36 (KHTML, like Gecko) Chrome/87.0.4280.88 Safari/537.36" etag="N_eUh9IxuNeBCwYFFaTi" version="14.1.1" type="github">
  <diagram id="74I6Pbm7i6Ht6HoFf3ie" name="Page-1">
    <mxGraphModel dx="1673" dy="2103" grid="1" gridSize="10" guides="1" tooltips="1" connect="1" arrows="1" fold="1" page="1" pageScale="1" pageWidth="827" pageHeight="1169" math="0" shadow="0">
      <root>
        <mxCell id="0" />
        <mxCell id="1" parent="0" />
        <mxCell id="IMY1rGLVhlN_etr2v60y-4" value="DYPTHS" style="rounded=1;whiteSpace=wrap;html=1;" vertex="1" parent="1">
          <mxGeometry x="570" y="590" width="120" height="60" as="geometry" />
        </mxCell>
        <mxCell id="IMY1rGLVhlN_etr2v60y-6" value="PTInterfaceManager" style="swimlane;fontStyle=1;align=center;verticalAlign=top;childLayout=stackLayout;horizontal=1;startSize=26;horizontalStack=0;resizeParent=1;resizeParentMax=0;resizeLast=0;collapsible=1;marginBottom=0;" vertex="1" parent="1">
          <mxGeometry x="30" y="740" width="330" height="216" as="geometry" />
        </mxCell>
        <mxCell id="IMY1rGLVhlN_etr2v60y-7" value="+ field: type" style="text;strokeColor=none;fillColor=none;align=left;verticalAlign=top;spacingLeft=4;spacingRight=4;overflow=hidden;rotatable=0;points=[[0,0.5],[1,0.5]];portConstraint=eastwest;" vertex="1" parent="IMY1rGLVhlN_etr2v60y-6">
          <mxGeometry y="26" width="330" height="26" as="geometry" />
        </mxCell>
        <mxCell id="IMY1rGLVhlN_etr2v60y-8" value="" style="line;strokeWidth=1;fillColor=none;align=left;verticalAlign=middle;spacingTop=-1;spacingLeft=3;spacingRight=3;rotatable=0;labelPosition=right;points=[];portConstraint=eastwest;" vertex="1" parent="IMY1rGLVhlN_etr2v60y-6">
          <mxGeometry y="52" width="330" height="8" as="geometry" />
        </mxCell>
        <mxCell id="IMY1rGLVhlN_etr2v60y-9" value="+ RegisterPTHS(type): type //注册方法" style="text;strokeColor=none;fillColor=none;align=left;verticalAlign=top;spacingLeft=4;spacingRight=4;overflow=hidden;rotatable=0;points=[[0,0.5],[1,0.5]];portConstraint=eastwest;" vertex="1" parent="IMY1rGLVhlN_etr2v60y-6">
          <mxGeometry y="60" width="330" height="26" as="geometry" />
        </mxCell>
        <mxCell id="IMY1rGLVhlN_etr2v60y-10" value="+ UnRegisterPTHS(type): type" style="text;strokeColor=none;fillColor=none;align=left;verticalAlign=top;spacingLeft=4;spacingRight=4;overflow=hidden;rotatable=0;points=[[0,0.5],[1,0.5]];portConstraint=eastwest;" vertex="1" parent="IMY1rGLVhlN_etr2v60y-6">
          <mxGeometry y="86" width="330" height="26" as="geometry" />
        </mxCell>
        <mxCell id="IMY1rGLVhlN_etr2v60y-11" value="+ DYPTHS(type): type    //执行方法" style="text;strokeColor=none;fillColor=none;align=left;verticalAlign=top;spacingLeft=4;spacingRight=4;overflow=hidden;rotatable=0;points=[[0,0.5],[1,0.5]];portConstraint=eastwest;" vertex="1" parent="IMY1rGLVhlN_etr2v60y-6">
          <mxGeometry y="112" width="330" height="26" as="geometry" />
        </mxCell>
        <mxCell id="IMY1rGLVhlN_etr2v60y-12" value="+ DYJBHS(type): type" style="text;strokeColor=none;fillColor=none;align=left;verticalAlign=top;spacingLeft=4;spacingRight=4;overflow=hidden;rotatable=0;points=[[0,0.5],[1,0.5]];portConstraint=eastwest;" vertex="1" parent="IMY1rGLVhlN_etr2v60y-6">
          <mxGeometry y="138" width="330" height="26" as="geometry" />
        </mxCell>
        <mxCell id="IMY1rGLVhlN_etr2v60y-13" value="+ InitLJBDYHS(type): type" style="text;strokeColor=none;fillColor=none;align=left;verticalAlign=top;spacingLeft=4;spacingRight=4;overflow=hidden;rotatable=0;points=[[0,0.5],[1,0.5]];portConstraint=eastwest;" vertex="1" parent="IMY1rGLVhlN_etr2v60y-6">
          <mxGeometry y="164" width="330" height="26" as="geometry" />
        </mxCell>
        <mxCell id="IMY1rGLVhlN_etr2v60y-14" value="+ Instance(type): type" style="text;strokeColor=none;fillColor=none;align=left;verticalAlign=top;spacingLeft=4;spacingRight=4;overflow=hidden;rotatable=0;points=[[0,0.5],[1,0.5]];portConstraint=eastwest;" vertex="1" parent="IMY1rGLVhlN_etr2v60y-6">
          <mxGeometry y="190" width="330" height="26" as="geometry" />
        </mxCell>
        <mxCell id="IMY1rGLVhlN_etr2v60y-23" value="" style="edgeStyle=orthogonalEdgeStyle;rounded=0;orthogonalLoop=1;jettySize=auto;html=1;" edge="1" parent="1" source="IMY1rGLVhlN_etr2v60y-15" target="IMY1rGLVhlN_etr2v60y-22">
          <mxGeometry relative="1" as="geometry" />
        </mxCell>
        <mxCell id="IMY1rGLVhlN_etr2v60y-15" value="相机" style="rounded=1;whiteSpace=wrap;html=1;" vertex="1" parent="1">
          <mxGeometry x="160" y="40" width="90" height="40" as="geometry" />
        </mxCell>
        <mxCell id="IMY1rGLVhlN_etr2v60y-16" value="相册" style="rounded=1;whiteSpace=wrap;html=1;" vertex="1" parent="1">
          <mxGeometry x="570" y="40" width="90" height="40" as="geometry" />
        </mxCell>
        <mxCell id="IMY1rGLVhlN_etr2v60y-17" value="语音" style="rounded=1;whiteSpace=wrap;html=1;" vertex="1" parent="1">
          <mxGeometry x="700" y="40" width="90" height="40" as="geometry" />
        </mxCell>
        <mxCell id="IMY1rGLVhlN_etr2v60y-18" value="视频" style="rounded=1;whiteSpace=wrap;html=1;" vertex="1" parent="1">
          <mxGeometry x="830" y="40" width="90" height="40" as="geometry" />
        </mxCell>
        <mxCell id="IMY1rGLVhlN_etr2v60y-19" value="位置" style="rounded=1;whiteSpace=wrap;html=1;" vertex="1" parent="1">
          <mxGeometry x="960" y="40" width="90" height="40" as="geometry" />
        </mxCell>
        <mxCell id="IMY1rGLVhlN_etr2v60y-20" value="键盘" style="rounded=1;whiteSpace=wrap;html=1;" vertex="1" parent="1">
          <mxGeometry x="1090" y="40" width="90" height="40" as="geometry" />
        </mxCell>
        <mxCell id="IMY1rGLVhlN_etr2v60y-21" value="推送" style="rounded=1;whiteSpace=wrap;html=1;" vertex="1" parent="1">
          <mxGeometry x="1220" y="40" width="90" height="40" as="geometry" />
        </mxCell>
        <mxCell id="IMY1rGLVhlN_etr2v60y-34" value="" style="edgeStyle=orthogonalEdgeStyle;rounded=0;orthogonalLoop=1;jettySize=auto;html=1;fontSize=18;" edge="1" parent="1" source="IMY1rGLVhlN_etr2v60y-22" target="IMY1rGLVhlN_etr2v60y-33">
          <mxGeometry relative="1" as="geometry" />
        </mxCell>
        <mxCell id="IMY1rGLVhlN_etr2v60y-22" value="IOSUtils.openCamera();" style="whiteSpace=wrap;html=1;rounded=1;" vertex="1" parent="1">
          <mxGeometry x="132.5" y="140" width="145" height="30" as="geometry" />
        </mxCell>
        <mxCell id="IMY1rGLVhlN_etr2v60y-25" value="" style="endArrow=none;dashed=1;html=1;dashPattern=1 3;strokeWidth=2;" edge="1" parent="1">
          <mxGeometry width="50" height="50" relative="1" as="geometry">
            <mxPoint x="100" y="200" as="sourcePoint" />
            <mxPoint x="1130" y="200" as="targetPoint" />
          </mxGeometry>
        </mxCell>
        <mxCell id="IMY1rGLVhlN_etr2v60y-26" value="" style="endArrow=none;dashed=1;html=1;dashPattern=1 3;strokeWidth=2;" edge="1" parent="1">
          <mxGeometry width="50" height="50" relative="1" as="geometry">
            <mxPoint x="90" y="540" as="sourcePoint" />
            <mxPoint x="1120" y="540" as="targetPoint" />
          </mxGeometry>
        </mxCell>
        <mxCell id="IMY1rGLVhlN_etr2v60y-27" value="C#层" style="text;html=1;strokeColor=none;fillColor=none;align=center;verticalAlign=middle;whiteSpace=wrap;rounded=0;fontSize=18;" vertex="1" parent="1">
          <mxGeometry x="10" y="50" width="60" height="30" as="geometry" />
        </mxCell>
        <mxCell id="IMY1rGLVhlN_etr2v60y-28" value="IOS层" style="text;html=1;strokeColor=none;fillColor=none;align=center;verticalAlign=middle;whiteSpace=wrap;rounded=0;fontSize=18;" vertex="1" parent="1">
          <mxGeometry x="10" y="220" width="70" height="40" as="geometry" />
        </mxCell>
        <mxCell id="IMY1rGLVhlN_etr2v60y-29" value="" style="endArrow=none;dashed=1;html=1;dashPattern=1 3;strokeWidth=2;" edge="1" parent="1">
          <mxGeometry width="50" height="50" relative="1" as="geometry">
            <mxPoint x="100" y="-370" as="sourcePoint" />
            <mxPoint x="1130" y="-370" as="targetPoint" />
          </mxGeometry>
        </mxCell>
        <mxCell id="IMY1rGLVhlN_etr2v60y-30" value="lua层" style="text;html=1;strokeColor=none;fillColor=none;align=center;verticalAlign=middle;whiteSpace=wrap;rounded=0;fontSize=18;" vertex="1" parent="1">
          <mxGeometry x="20" y="-270" width="70" height="40" as="geometry" />
        </mxCell>
        <mxCell id="IMY1rGLVhlN_etr2v60y-31" value="" style="endArrow=none;dashed=1;html=1;dashPattern=1 3;strokeWidth=2;" edge="1" parent="1">
          <mxGeometry width="50" height="50" relative="1" as="geometry">
            <mxPoint x="102.5" y="-111" as="sourcePoint" />
            <mxPoint x="1132.5" y="-111" as="targetPoint" />
          </mxGeometry>
        </mxCell>
        <mxCell id="IMY1rGLVhlN_etr2v60y-36" value="" style="edgeStyle=orthogonalEdgeStyle;rounded=0;orthogonalLoop=1;jettySize=auto;html=1;fontSize=18;" edge="1" parent="1" source="IMY1rGLVhlN_etr2v60y-33" target="IMY1rGLVhlN_etr2v60y-35">
          <mxGeometry relative="1" as="geometry" />
        </mxCell>
        <mxCell id="IMY1rGLVhlN_etr2v60y-33" value="exter “C” openCamera" style="whiteSpace=wrap;html=1;rounded=1;" vertex="1" parent="1">
          <mxGeometry x="137.5" y="235" width="135" height="25" as="geometry" />
        </mxCell>
        <mxCell id="IMY1rGLVhlN_etr2v60y-41" value="&lt;font style=&quot;font-size: 12px&quot;&gt;系统回调&lt;/font&gt;" style="edgeStyle=orthogonalEdgeStyle;rounded=0;orthogonalLoop=1;jettySize=auto;html=1;fontSize=18;" edge="1" parent="1" source="IMY1rGLVhlN_etr2v60y-35" target="IMY1rGLVhlN_etr2v60y-37">
          <mxGeometry relative="1" as="geometry" />
        </mxCell>
        <mxCell id="IMY1rGLVhlN_etr2v60y-35" value="ImageViewController.openCamera" style="whiteSpace=wrap;html=1;rounded=1;" vertex="1" parent="1">
          <mxGeometry x="102.5" y="300" width="205" height="37.5" as="geometry" />
        </mxCell>
        <mxCell id="IMY1rGLVhlN_etr2v60y-47" value="" style="edgeStyle=orthogonalEdgeStyle;rounded=0;orthogonalLoop=1;jettySize=auto;html=1;fontSize=18;" edge="1" parent="1" source="IMY1rGLVhlN_etr2v60y-37" target="IMY1rGLVhlN_etr2v60y-46">
          <mxGeometry relative="1" as="geometry" />
        </mxCell>
        <mxCell id="IMY1rGLVhlN_etr2v60y-37" value="imagePickerController" style="whiteSpace=wrap;html=1;rounded=1;" vertex="1" parent="1">
          <mxGeometry x="102.5" y="390" width="205" height="37.5" as="geometry" />
        </mxCell>
        <mxCell id="IMY1rGLVhlN_etr2v60y-49" style="edgeStyle=orthogonalEdgeStyle;rounded=0;orthogonalLoop=1;jettySize=auto;html=1;fontSize=18;" edge="1" parent="1" source="IMY1rGLVhlN_etr2v60y-46" target="IMY1rGLVhlN_etr2v60y-48">
          <mxGeometry relative="1" as="geometry">
            <Array as="points">
              <mxPoint x="379" y="479" />
            </Array>
          </mxGeometry>
        </mxCell>
        <mxCell id="IMY1rGLVhlN_etr2v60y-46" value="UnitySendMessage(&quot;GameMain&quot;, &quot;ImagePicker_OnPickFinish&quot;, tmp_file_name);" style="whiteSpace=wrap;html=1;rounded=1;" vertex="1" parent="1">
          <mxGeometry x="46.25" y="460" width="317.5" height="37.5" as="geometry" />
        </mxCell>
        <mxCell id="IMY1rGLVhlN_etr2v60y-51" value="" style="edgeStyle=orthogonalEdgeStyle;rounded=0;orthogonalLoop=1;jettySize=auto;html=1;fontSize=18;" edge="1" parent="1" source="IMY1rGLVhlN_etr2v60y-48" target="IMY1rGLVhlN_etr2v60y-50">
          <mxGeometry relative="1" as="geometry" />
        </mxCell>
        <mxCell id="IMY1rGLVhlN_etr2v60y-48" value="PlatformMsgHandler" style="rounded=1;whiteSpace=wrap;html=1;" vertex="1" parent="1">
          <mxGeometry x="320" y="110" width="117.5" height="40" as="geometry" />
        </mxCell>
        <mxCell id="IMY1rGLVhlN_etr2v60y-53" style="edgeStyle=orthogonalEdgeStyle;rounded=0;orthogonalLoop=1;jettySize=auto;html=1;fontSize=18;" edge="1" parent="1" source="IMY1rGLVhlN_etr2v60y-50" target="IMY1rGLVhlN_etr2v60y-52">
          <mxGeometry relative="1" as="geometry" />
        </mxCell>
        <mxCell id="IMY1rGLVhlN_etr2v60y-50" value="&#xa;&#xa;&lt;span style=&quot;color: rgb(0, 0, 0); font-family: helvetica; font-size: 12px; font-style: normal; font-weight: 400; letter-spacing: normal; text-align: center; text-indent: 0px; text-transform: none; word-spacing: 0px; background-color: rgb(248, 249, 250); display: inline; float: none;&quot;&gt;ImagePicker_OnPickFinish&lt;/span&gt;&#xa;&#xa;" style="rounded=1;whiteSpace=wrap;html=1;" vertex="1" parent="1">
          <mxGeometry x="298.75" y="30" width="160" height="40" as="geometry" />
        </mxCell>
        <mxCell id="IMY1rGLVhlN_etr2v60y-54" style="edgeStyle=orthogonalEdgeStyle;rounded=0;orthogonalLoop=1;jettySize=auto;html=1;fontSize=18;" edge="1" parent="1" source="IMY1rGLVhlN_etr2v60y-52">
          <mxGeometry relative="1" as="geometry">
            <mxPoint x="378.75" y="-150" as="targetPoint" />
          </mxGeometry>
        </mxCell>
        <mxCell id="IMY1rGLVhlN_etr2v60y-52" value="ImagePicker" style="rounded=1;whiteSpace=wrap;html=1;" vertex="1" parent="1">
          <mxGeometry x="298.75" y="-50" width="160" height="40" as="geometry" />
        </mxCell>
      </root>
    </mxGraphModel>
  </diagram>
</mxfile>
